<svg viewBox="0 0 64 64" xmlns="http://www.w3.org/2000/svg"><path d="M39 12.58a1 1 0 0 0 1-1V9.44a1 1 0 1 0-2 0v2.14a1 1 0 0 0 1 1zM47.92 15a.91.91 0 0 0 .45.11 1 1 0 0 0 .89-.55s.26-.5 1.09-1.81a1 1 0 1 0-1.69-1.07 21.44 21.44 0 0 0-1.18 2 1 1 0 0 0 .44 1.32zm7.41 6.94a1 1 0 0 0 .54-.17s.4-.25 1.7-1a1 1 0 1 0-1-1.76c-1.39.76-1.8 1-1.84 1.06a1 1 0 0 0 .56 1.83zM60 29.42h-2.15a1 1 0 0 0 0 2H60a1 1 0 0 0 0-2zm-2.37 10.65l-1.75-1.13a1 1 0 1 0-1.11 1.67l1.79 1.15a1 1 0 0 0 1.38-.31 1 1 0 0 0-.31-1.38zm-37.3-19.26c1.42.77 1.93 1 1.93 1a1.06 1.06 0 0 0 .45.11 1 1 0 0 0 .89-.55 1 1 0 0 0-.44-1.37s-.52-.25-1.87-1a1 1 0 0 0-1.36.4 1 1 0 0 0 .4 1.41zm8.31-6.25a1 1 0 0 0 .9.55A1 1 0 0 0 30 15a1 1 0 0 0 .45-1.34s-.26-.52-1-1.93a1 1 0 1 0-1.75 1c.68 1.27.93 1.82.94 1.83z"/><path d="M50.36 42.88a10.65 10.65 0 0 0-.74-2.19 14.29 14.29 0 0 0 3.63-6.46A14.58 14.58 0 0 0 51.8 23a14.81 14.81 0 0 0-26.9 2.64A14.83 14.83 0 0 0 10.41 38.7a8.46 8.46 0 0 0 1.05 16.86h38.22a6.41 6.41 0 0 0 6.14-6.43 6.31 6.31 0 0 0-5.46-6.25zM42.29 18a12.9 12.9 0 0 1 7.77 6 12.94 12.94 0 0 1-1.48 14.89 10.67 10.67 0 0 0-6-4.1h-.1c-.33-.08-.66-.14-1-.19h-.27a8.62 8.62 0 0 0-1.21-.12h-1.13A14.63 14.63 0 0 0 27 25.72 12.74 12.74 0 0 1 42.29 18zm7.34 35.58H11.46a6.46 6.46 0 0 1-.13-12.91h.95l.05-.93a13 13 0 0 1 12.91-12.11 12.1 12.1 0 0 1 1.21.06h.27c.35 0 .69.09 1 .16h.13a12.93 12.93 0 0 1 10.29 12.68 10.29 10.29 0 0 1-.56 3.8 1 1 0 0 0 .56 1.3 1 1 0 0 0 .37.07 1 1 0 0 0 .93-.62 12.39 12.39 0 0 0 .7-4.55 15.06 15.06 0 0 0-.57-4.05H40a7.17 7.17 0 0 1 1 .07h.2A8.57 8.57 0 0 1 47.49 41l.47.86a9 9 0 0 1 .56 2.14l.11.87h.88a4.37 4.37 0 0 1 4.31 4.31 4.41 4.41 0 0 1-4.19 4.38z"/></svg>