<?xml version="1.0" ?><svg id="Expanded" viewBox="0 0 64 64" xmlns="http://www.w3.org/2000/svg"><title/><path d="M58.18,34a12.32,12.32,0,0,0,.93-4.58,12,12,0,0,0-12-12h-.64a9,9,0,0,0-8.6-6.64,8.68,8.68,0,0,0-6.93,3.31,16.37,16.37,0,0,0-3.49-.35c-.53,0-1.05,0-1.56.08a16.21,16.21,0,0,0-10.36,5l-.11.11c-.23.25-.46.51-.67.78s-.25.29-.36.44-.26.35-.38.53-.38.54-.55.82c0,.08-.1.16-.14.24a15.83,15.83,0,0,0-2.05,5.61l0,.08c0,.23-.08.46-.11.7a9.23,9.23,0,0,0,1,18.39h.12a1,1,0,0,0,0-2h-.12A7.23,7.23,0,0,1,12.08,30l.15,0,.18,0,.18-.11.13-.08c.06-.06.1-.13.15-.19l.07-.11A.69.69,0,0,0,13,29.2a.32.32,0,0,0,0-.09,14.41,14.41,0,0,1,28.78,1,14.77,14.77,0,0,1-.66,4.32,1,1,0,0,0,.66,1.25,1,1,0,0,0,.29,0,1,1,0,0,0,1-.7,16.73,16.73,0,0,0,.75-4.91,17.41,17.41,0,0,0-.19-2.41,8.83,8.83,0,0,1,3,.82,8,8,0,0,1,3.67,10.63,1,1,0,0,0,.48,1.33.94.94,0,0,0,.43.1,1,1,0,0,0,.9-.57,10,10,0,0,0-4.63-13.3,10.55,10.55,0,0,0-4.3-1A16.42,16.42,0,0,0,33,14.72a6.7,6.7,0,0,1,4.82-2,7,7,0,0,1,6.83,5.91,1,1,0,0,0,1.23.81,4.88,4.88,0,0,1,1.18-.09,10,10,0,0,1,10,10A10.68,10.68,0,0,1,56,34a1,1,0,0,0,.44,1.3A4.93,4.93,0,0,1,54.2,44.5H51.83a1,1,0,0,0,0,2h2.41A6.94,6.94,0,0,0,58.18,34Z"/><path d="M29.93,44.5H25.59l3-3a1,1,0,0,0,0-1.42,1,1,0,0,0-1.41,0l-3,3V38.75a1,1,0,0,0-2,0v4.33l-3-3a1,1,0,0,0-1.41,0,1,1,0,0,0,0,1.42l3,3H16.43a1,1,0,0,0,0,2h4.34l-3,3a1,1,0,0,0,.7,1.7,1,1,0,0,0,.71-.29l3-3v4.34a1,1,0,0,0,2,0V47.91l3,3a1,1,0,0,0,1.41,0,1,1,0,0,0,0-1.41l-3-3h4.34a1,1,0,1,0,0-2Z"/><path d="M47.57,44.5H43.23l3-3a1,1,0,0,0,0-1.42,1,1,0,0,0-1.41,0l-3,3V38.75a1,1,0,0,0-2,0v4.33l-3-3a1,1,0,0,0-1.41,0,1,1,0,0,0,0,1.42l3,3H34.07a1,1,0,1,0,0,2h4.34l-3,3a1,1,0,0,0,.7,1.7,1,1,0,0,0,.71-.29l3-3v4.34a1,1,0,0,0,2,0V47.91l3,3a1,1,0,0,0,1.41,0,1,1,0,0,0,0-1.41l-3-3h4.34a1,1,0,0,0,0-2Z"/></svg>