<svg id="Expanded" viewBox="0 0 64 64" xmlns="http://www.w3.org/2000/svg"><path d="M37 13.11a19.52 19.52 0 0 0-21.94 28.65 19 19 0 0 0 11.77 9 19.64 19.64 0 0 0 5.18.7 19.4 19.4 0 0 0 9.75-2.64 19.08 19.08 0 0 0 9-11.78A19.5 19.5 0 0 0 37 13.11zm11.79 23.37a17.11 17.11 0 0 1-8 10.57 17.45 17.45 0 0 1-13.41 1.74 17.11 17.11 0 0 1-10.57-8A17.55 17.55 0 0 1 31.9 14.42a17.17 17.17 0 0 1 4.57.62 17.51 17.51 0 0 1 12.32 21.44zM32 7.8a1 1 0 0 0 1-1V3.93a1 1 0 1 0-2 0V6.8a1 1 0 0 0 1 1zm12.06 3.28a1.06 1.06 0 0 0 .45.11 1 1 0 0 0 .9-.55 27.84 27.84 0 0 1 1.47-2.45 1 1 0 0 0-.31-1.38 1 1 0 0 0-1.38.3 30.23 30.23 0 0 0-1.57 2.63 1 1 0 0 0 .44 1.34zm9.76 9.24a1 1 0 0 0 .55-.17s.52-.34 2.29-1.31a1 1 0 1 0-1-1.75c-1.84 1-2.38 1.36-2.44 1.39a1 1 0 0 0 .56 1.84zM60.07 31H57.2a1 1 0 0 0 0 2h2.87a1 1 0 0 0 0-2zm-3.35 14.19c-1.83-1.16-2.34-1.5-2.35-1.51a1 1 0 1 0-1.11 1.67s.51.34 2.38 1.53a1.09 1.09 0 0 0 .54.16 1 1 0 0 0 .54-1.85zm-11.37 8.07a1 1 0 1 0-1.67 1.11s.35.52 1.51 2.35a1 1 0 0 0 .85.46.94.94 0 0 0 .53-.16 1 1 0 0 0 .31-1.38c-1.19-1.87-1.53-2.38-1.53-2.38zM32 56.2a1 1 0 0 0-1 1v2.87a1 1 0 0 0 2 0V57.2a1 1 0 0 0-1-1zm-13.52-2.94c0 .06-.39.6-1.39 2.44a1 1 0 1 0 1.75 1c1-1.77 1.31-2.29 1.31-2.29a1 1 0 0 0-1.67-1.11zm-8.74-9.64a30.23 30.23 0 0 0-2.63 1.57A1 1 0 0 0 7.65 47a1.09 1.09 0 0 0 .54-.16c1.76-1.13 2.44-1.47 2.44-1.47a1 1 0 0 0-.89-1.79zM7.8 32a1 1 0 0 0-1-1H3.93a1 1 0 1 0 0 2H6.8a1 1 0 0 0 1-1zm-.63-13.16c1.88 1 2.57 1.37 2.57 1.37a1 1 0 0 0 .89-1.79s-.68-.34-2.5-1.33a1 1 0 1 0-1 1.75zm11.25-8.21a1 1 0 0 0 .9.56 1 1 0 0 0 .89-1.45s-.34-.69-1.37-2.57a1 1 0 1 0-1.75 1c.99 1.83 1.33 2.45 1.33 2.46z"/></svg>