<?xml version="1.0" ?><svg id="Expanded" viewBox="0 0 64 64" xmlns="http://www.w3.org/2000/svg"><title/><path d="M37,13.11A19.52,19.52,0,0,0,15.06,41.76a19,19,0,0,0,11.77,9,19.64,19.64,0,0,0,5.18.7,19.4,19.4,0,0,0,9.75-2.64,19.08,19.08,0,0,0,9-11.78A19.5,19.5,0,0,0,37,13.11ZM48.79,36.48a17.11,17.11,0,0,1-8,10.57,17.45,17.45,0,0,1-13.41,1.74,17.11,17.11,0,0,1-10.57-8A17.55,17.55,0,0,1,31.9,14.42a17.17,17.17,0,0,1,4.57.62A17.51,17.51,0,0,1,48.79,36.48Z"/><path d="M32,7.8a1,1,0,0,0,1-1V3.93a1,1,0,1,0-2,0V6.8A1,1,0,0,0,32,7.8Z"/><path d="M44.06,11.08a1.06,1.06,0,0,0,.45.11,1,1,0,0,0,.9-.55,27.84,27.84,0,0,1,1.47-2.45,1,1,0,0,0-.31-1.38,1,1,0,0,0-1.38.3,30.23,30.23,0,0,0-1.57,2.63A1,1,0,0,0,44.06,11.08Z"/><path d="M53.82,20.32a1,1,0,0,0,.55-.17s.52-.34,2.29-1.31a1,1,0,1,0-1-1.75c-1.84,1-2.38,1.36-2.44,1.39a1,1,0,0,0,.56,1.84Z"/><path d="M60.07,31H57.2a1,1,0,0,0,0,2h2.87a1,1,0,0,0,0-2Z"/><path d="M56.72,45.19c-1.83-1.16-2.34-1.5-2.35-1.51a1,1,0,1,0-1.11,1.67s.51.34,2.38,1.53a1.09,1.09,0,0,0,.54.16,1,1,0,0,0,.54-1.85Z"/><path d="M45.35,53.26a1,1,0,1,0-1.67,1.11s.35.52,1.51,2.35a1,1,0,0,0,.85.46.94.94,0,0,0,.53-.16,1,1,0,0,0,.31-1.38C45.69,53.77,45.35,53.26,45.35,53.26Z"/><path d="M32,56.2a1,1,0,0,0-1,1v2.87a1,1,0,0,0,2,0V57.2A1,1,0,0,0,32,56.2Z"/><path d="M18.48,53.26c0,.06-.39.6-1.39,2.44a1,1,0,1,0,1.75,1c1-1.77,1.31-2.29,1.31-2.29a1,1,0,0,0-1.67-1.11Z"/><path d="M9.74,43.62a30.23,30.23,0,0,0-2.63,1.57A1,1,0,0,0,7.65,47a1.09,1.09,0,0,0,.54-.16c1.76-1.13,2.44-1.47,2.44-1.47a1,1,0,0,0-.89-1.79Z"/><path d="M7.8,32a1,1,0,0,0-1-1H3.93a1,1,0,1,0,0,2H6.8A1,1,0,0,0,7.8,32Z"/><path d="M7.17,18.84c1.88,1,2.57,1.37,2.57,1.37a1,1,0,0,0,.89-1.79s-.68-.34-2.5-1.33a1,1,0,1,0-1,1.75Z"/><path d="M18.42,10.63a1,1,0,0,0,.9.56,1,1,0,0,0,.89-1.45s-.34-.69-1.37-2.57a1,1,0,1,0-1.75,1C18.08,10,18.42,10.62,18.42,10.63Z"/></svg>