<svg version="1.0" xmlns="http://www.w3.org/2000/svg" width="933.333" height="933.333" viewBox="0 0 700 700"><path d="M171.7 52.1c-30.3 5.3-55.7 18.7-78.3 41.3-21.2 21.3-33.5 43.5-40.7 73.9l-2.1 9.2-.4 163c-.3 166.1-.1 176.7 3.5 193l1.6 7.3 52.6 52.6 52.6 52.5 7 1.5c3.9.8 11.4 1.9 16.7 2.5 13.4 1.5 326.6 1.5 337.5 0 17.3-2.3 38.1-9.2 53-17.6 10.6-5.9 25.1-17.3 34.3-26.9 19.7-20.5 32.6-45.2 38.6-73.9 1.8-8.6 1.9-16.4 1.9-181v-172l-2.3-10.5c-12.9-57.7-54.6-99.7-113.7-114.2l-9-2.2-171-.2c-164.5-.3-171.4-.2-181.8 1.7zm346.3 105c-26.4 23.9-30.3 28.5-38.5 45.4-8.1 16.5-9.9 24.6-9.9 43.5 0 18 1.1 23.6 7.9 37.5 17.3 35.7 56 49.1 107.8 37.2 8.1-1.9 14.7-3.2 14.7-3 0 .2-3.7 5.4-8.3 11.6-9.1 12.3-16.3 19.2-24.4 23.4-2.9 1.6-5.3 3.1-5.3 3.4 0 .4 1.8 1.8 3.9 3.2 6.3 4.2 16.9 14.6 21.7 21.3 9.9 13.9 14.6 28.4 14.7 45.4.1 17.1-4.1 31.4-13.5 45.7-12.6 19.3-31.4 32.4-55.6 38.6l-8.7 2.2h-159c-149.4 0-159.6-.1-168.4-1.8-48.9-9.4-83.6-39.1-94.8-81.3-3.6-13.9-3.8-34.6-.4-47.9 11.7-45.5 52.3-75.2 108.5-79.1l9.5-.7.7-3.1c1.4-6.7 6.8-21.5 10.6-29.1 6.4-12.6 13.4-22.3 23.7-32.6 15.5-15.6 31.6-24.9 53-30.7 8.5-2.3 11.5-2.6 26.1-2.6 14.6 0 17.6.3 26.1 2.6 17.9 4.8 32.9 13.3 46.6 26.3 4.2 4.1 7.8 7.3 7.9 7.2.1-.1 1.3-4.5 2.8-9.7 8.2-29.4 26.6-52.9 50.8-65.1 10.4-5.2 20.4-7.8 38.3-9.9 8.3-1 15.2-1.8 15.5-1.9.3 0-1.5 1.8-4 4z"/><path d="M473.7 177c-22.3 11.3-39.3 35.2-45.1 63.3-2.6 12.5-2.2 16.5 2.8 27 7.6 16 13.5 37.3 15.1 54.7 1.1 11.9-1.4 10.6 21.7 11.3 27.9.9 48.8 4.2 66.3 10.4 5.4 2 8.1 2.4 12.3 2 5-.5 18.2-5.8 18.2-7.3 0-.4-3.3-.4-7.4-.1-10.1.7-25.9-.8-35.9-3.4-33.4-8.8-56.9-33.8-63.9-67.9-2.8-13.5-2.1-35.4 1.5-49.3 3.1-11.6 9.7-26.1 16.7-36.3 2.8-4.1 4.7-7.4 4.3-7.4-.5 0-3.4 1.4-6.6 3z"/></svg>