<svg version="1.0" xmlns="http://www.w3.org/2000/svg" width="682.667" height="682.667" viewBox="0 0 512 512"><path d="M235 .6c-26.4 3-47.6 7.7-66.5 14.6C88.4 44.6 28.2 111.4 7.7 193.5 1.8 217.1.5 228.3.5 256c0 27.7 1.3 38.9 7.2 62.5 20.5 82 80.7 148.9 160.8 178.3 13.1 4.8 35.9 10.5 50.5 12.7 24.1 3.6 57.8 3 82.9-1.5 50.5-9.2 98.4-34.3 135.1-71 36.7-36.7 61.8-84.6 71-135.1 4.5-25.1 5.1-58.8 1.5-82.9-14-93.4-77.5-171.3-166-203.8-13-4.7-35.8-10.5-50.5-12.7-10-1.6-49.9-2.8-58-1.9zm108 75.8c0 .2-2 3.3-4.5 7-20.5 30.6-24.1 70.8-9.6 105.7 10.3 24.6 33.2 47.7 58.2 58.6 17.5 7.5 41.8 11.1 58.4 8.5 3.8-.6 7.1-1 7.3-.8.2.2-3.2 4-7.5 8.3-12.3 12.6-27.8 22.5-43.5 27.9l-6.6 2.2-1.7-5.1c-3.6-11-8.6-18.9-18.5-28.8-8.2-8.3-10.8-10.3-19-14.3-12.4-6-19.1-7.7-32.4-8.1l-11-.4-2.6-7.3c-8.8-24-24.2-41.4-46.5-52.4-11.1-5.5-10.8-4.8-7.1-19.8 5-19.3 15.4-37.3 30.3-51.7 9.7-9.4 17-14.7 28.3-20.4 10.3-5.2 28-11 28-9.1zm-119.6 30.1c1.3 11.8.9 11.1 10.8 16.1l9 4.5-9.3 4.7-9.4 4.7-1.6 9.5c-.9 5.2-1.7 9.6-1.8 9.6 0 .1-3.2-3-7-6.9l-6.9-7.1-9.6 1.3c-5.3.8-9.8 1.2-10 1-.2-.2 1.8-4.2 4.4-8.9l4.7-8.5-4.3-8.7c-2.4-4.8-4.4-8.9-4.4-9.1 0-.3 4.4.4 9.8 1.4l9.7 1.8 7-6.9c4.5-4.6 7.2-6.5 7.6-5.7.4.6 1 3.9 1.3 7.2zm188.5 34.4l10.2 14 18.2-.6 18.2-.6-2.6 3.4c-1.4 1.9-6.3 8.5-10.8 14.8l-8.3 11.3 6 16.9c3.2 9.3 5.6 16.9 5.3 16.9-.3 0-8.1-2.4-17.3-5.3l-16.6-5.4-13.9 10.7-13.8 10.7-.3-17.8-.2-17.7-15-10.3c-8.2-5.6-14.9-10.4-14.7-10.5.1-.2 7.5-2.6 16.2-5.5 8.8-2.8 16.5-5.5 17.1-6 .6-.5 3.3-8.3 5.9-17.4 2.6-9 5.1-16.2 5.5-16 .4.2 5.3 6.7 10.9 14.4zm-169.4 39.6c17.3 4.8 35.5 17.5 45.2 31.6 7.1 10.3 14.3 28.5 14.3 36 0 1.4.2 2.8.5 3.1.3.3 3.1-.1 6.3-.8 12.6-3 28-1 41 5.2 6.1 2.9 9.5 5.5 16.2 12.3 13.6 13.7 19 26.6 19 45.4 0 18.8-5.4 31.8-19.2 46.2-9.5 10-16.3 14.4-26.3 17-8.9 2.3-215.1 2.3-224 0-8.7-2.3-15.2-6.2-22.6-13.5-20-19.8-19.9-51.9.3-72.2 10.1-10.2 23.1-14.7 41.9-14.8h7.6l-.9-6.3c-1.2-7.8-.2-20.7 2.2-30.1 3.9-15.4 11.6-28.3 23.7-39.7 11.3-10.6 24-17.2 39.3-20.5 8.2-1.7 27.2-1.1 35.5 1.1z"/></svg>